<svg width="617" height="300" viewBox="0 0 617 300" fill="none" xmlns="http://www.w3.org/2000/svg">
<style>
    .logo-text { fill: white; }
    /* Switch to dark text when the user is in Light Mode */
    @media (prefers-color-scheme: light) {
        .logo-text { fill: #1A1A1A; } 
    }
</style>
<path class="logo-text" d="M214.379 207C212.704 207 211.291 206.163 210.14 204.488C209.093 202.709 208.308 200.72 207.785 198.522C207.262 196.324 207 194.545 207 193.184C207 192.87 207 192.347 207 191.614C207.105 190.777 207.471 189.835 208.099 188.788L247.035 117.667H214.065C210.925 117.667 209.355 115.05 209.355 109.817V104.95C209.355 99.7167 210.925 97.1 214.065 97.1H269.643C271.318 97.1 272.678 97.9897 273.725 99.769C274.876 101.444 275.714 103.38 276.237 105.578C276.76 107.776 277.022 109.555 277.022 110.916C277.022 111.963 276.917 112.748 276.708 113.271C276.603 113.794 276.342 114.475 275.923 115.312L236.987 186.433H273.097C276.237 186.433 277.807 189.05 277.807 194.283V199.15C277.807 204.383 276.237 207 273.097 207H214.379ZM318.03 208.256C305.679 208.256 296.678 204.697 291.026 197.58C285.374 190.358 282.548 179.996 282.548 166.494C282.548 155.609 283.908 147.078 286.63 140.903C289.456 134.623 293.328 130.175 298.248 127.558C303.167 124.941 308.819 123.633 315.204 123.633C325.775 123.633 333.259 127.349 337.655 134.78C342.155 142.211 344.406 152.521 344.406 165.709C344.406 168.849 343.83 171.204 342.679 172.774C341.632 174.344 339.8 175.129 337.184 175.129H306.412C306.412 180.572 307.615 184.392 310.023 186.59C312.535 188.788 315.57 189.887 319.129 189.887C322.269 189.887 325.042 189.521 327.45 188.788C329.857 188.055 331.898 187.323 333.573 186.59C335.352 185.857 336.713 185.491 337.655 185.491C338.701 185.491 339.539 186.224 340.167 187.689C340.899 189.154 341.423 190.829 341.737 192.713C342.155 194.597 342.365 196.115 342.365 197.266C342.365 198.941 341.475 200.458 339.696 201.819C337.916 203.18 335.666 204.383 332.945 205.43C330.328 206.372 327.659 207.052 324.938 207.471C322.216 207.994 319.914 208.256 318.03 208.256ZM306.098 161.156H323.211C323.211 153.725 322.583 148.439 321.327 145.299C320.175 142.054 318.082 140.432 315.047 140.432C312.535 140.432 310.389 141.845 308.61 144.671C306.935 147.497 306.098 152.992 306.098 161.156ZM364.832 207.314C361.482 207.314 359.023 206.895 357.453 206.058C355.987 205.116 355.255 203.808 355.255 202.133V152.207C355.255 147.602 355.098 143.938 354.784 141.217C354.574 138.391 354.313 136.193 353.999 134.623C353.789 133.053 353.685 131.692 353.685 130.541C353.685 129.39 354.417 128.448 355.883 127.715C357.453 126.982 359.284 126.459 361.378 126.145C363.576 125.726 365.617 125.465 367.501 125.36C369.489 125.151 370.902 125.046 371.74 125.046C373.624 125.046 374.88 125.726 375.508 127.087C376.136 128.448 376.868 131.274 377.706 135.565C380.008 132.634 382.991 129.913 386.655 127.401C390.423 124.889 394.766 123.633 399.686 123.633C405.966 123.633 410.78 125.517 414.13 129.285C417.479 132.948 419.154 138.339 419.154 145.456V202.133C419.154 203.808 418.369 205.116 416.799 206.058C415.333 206.895 412.926 207.314 409.577 207.314H405.181C401.831 207.314 399.372 206.895 397.802 206.058C396.336 205.116 395.604 203.808 395.604 202.133V150.166C395.604 147.759 395.08 145.927 394.034 144.671C392.987 143.415 391.103 142.787 388.382 142.787C386.707 142.787 384.98 143.258 383.201 144.2C381.421 145.142 379.956 146.346 378.805 147.811V202.133C378.805 203.808 378.02 205.116 376.45 206.058C374.984 206.895 372.577 207.314 369.228 207.314H364.832ZM441.032 207.314C437.682 207.314 435.223 206.895 433.653 206.058C432.187 205.116 431.455 203.808 431.455 202.133V129.756C431.455 128.081 432.187 126.825 433.653 125.988C435.223 125.046 437.682 124.575 441.032 124.575H445.428C448.777 124.575 451.184 125.046 452.65 125.988C454.22 126.825 455.005 128.081 455.005 129.756V202.133C455.005 203.808 454.22 205.116 452.65 206.058C451.184 206.895 448.777 207.314 445.428 207.314H441.032ZM443.387 116.882C439.305 116.882 436.322 116.463 434.438 115.626C432.658 114.789 431.769 113.533 431.769 111.858V99.612C431.769 97.9373 432.658 96.6813 434.438 95.844C436.322 95.0067 439.305 94.588 443.387 94.588C447.469 94.588 450.399 95.0067 452.179 95.844C454.063 96.6813 455.005 97.9373 455.005 99.612V111.858C455.005 113.533 454.063 114.789 452.179 115.626C450.399 116.463 447.469 116.882 443.387 116.882ZM489.618 208.256C476.012 208.256 469.208 200.615 469.208 185.334V143.258H465.754C462.614 143.258 461.044 140.641 461.044 135.408V132.739C461.044 127.506 462.614 124.889 465.754 124.889H469.208L471.72 109.974C472.348 106.625 475.017 104.95 479.727 104.95H484.908C490.142 104.95 492.758 106.625 492.758 109.974V124.889H499.509C502.649 124.889 504.219 127.506 504.219 132.739V135.408C504.219 140.641 502.649 143.258 499.509 143.258H492.758V183.136C492.758 185.439 493.02 187.166 493.543 188.317C494.171 189.364 495.323 189.887 496.997 189.887C498.149 189.887 499.038 189.782 499.666 189.573C500.294 189.364 500.975 189.259 501.707 189.259C502.649 189.259 503.434 189.992 504.062 191.457C504.69 192.922 505.161 194.545 505.475 196.324C505.789 198.103 505.946 199.464 505.946 200.406C505.946 201.976 505.109 203.389 503.434 204.645C501.864 205.796 499.823 206.686 497.311 207.314C494.904 207.942 492.34 208.256 489.618 208.256ZM522.445 207.314C519.096 207.314 516.636 206.895 515.066 206.058C513.601 205.116 512.868 203.808 512.868 202.133V93.803C512.868 92.1283 513.601 90.8723 515.066 90.035C516.636 89.093 519.096 88.622 522.445 88.622H526.527C529.876 88.622 532.284 89.093 533.749 90.035C535.319 90.8723 536.104 92.1283 536.104 93.803V134.623C538.302 131.902 541.233 129.39 544.896 127.087C548.664 124.784 552.798 123.633 557.299 123.633C563.579 123.633 568.394 125.517 571.743 129.285C575.092 132.948 576.767 138.339 576.767 145.456V202.133C576.767 203.808 575.982 205.116 574.412 206.058C572.947 206.895 570.539 207.314 567.19 207.314H562.794C559.445 207.314 556.985 206.895 555.415 206.058C553.95 205.116 553.217 203.808 553.217 202.133V150.166C553.217 147.759 552.694 145.927 551.647 144.671C550.6 143.415 548.716 142.787 545.995 142.787C544.32 142.787 542.593 143.258 540.814 144.2C539.035 145.142 537.569 146.346 536.418 147.811V202.133C536.418 203.808 535.633 205.116 534.063 206.058C532.598 206.895 530.19 207.314 526.841 207.314H522.445Z"/>
<path d="M502.067 239.296C501.253 239.296 500.414 239.185 499.551 238.963C498.712 238.741 497.96 238.47 497.294 238.149C496.776 237.902 496.332 237.631 495.962 237.335C495.592 237.014 495.407 236.669 495.407 236.299C495.407 236.052 495.456 235.682 495.555 235.189C495.654 234.671 495.814 234.19 496.036 233.746C496.283 233.302 496.579 233.08 496.924 233.08C497.146 233.08 497.504 233.203 497.997 233.45C498.515 233.697 499.107 233.943 499.773 234.19C500.464 234.437 501.191 234.56 501.956 234.56C502.622 234.56 503.239 234.4 503.806 234.079C504.398 233.734 504.694 233.031 504.694 231.97C504.694 231.279 504.521 230.712 504.176 230.268C503.855 229.824 503.411 229.429 502.844 229.084C502.301 228.739 501.709 228.393 501.068 228.048C499.933 227.407 498.971 226.741 498.182 226.05C497.393 225.359 496.788 224.558 496.369 223.645C495.95 222.708 495.74 221.573 495.74 220.241C495.74 218.687 496.073 217.355 496.739 216.245C497.43 215.135 498.355 214.284 499.514 213.692C500.698 213.1 502.03 212.804 503.51 212.804C504.349 212.804 505.212 212.903 506.1 213.1C506.988 213.297 507.74 213.593 508.357 213.988C508.579 214.136 508.813 214.321 509.06 214.543C509.307 214.765 509.43 215.036 509.43 215.357C509.43 215.702 509.381 216.134 509.282 216.652C509.183 217.145 509.035 217.589 508.838 217.984C508.641 218.379 508.394 218.576 508.098 218.576C507.901 218.576 507.58 218.49 507.136 218.317C506.692 218.144 506.186 217.972 505.619 217.799C505.052 217.626 504.497 217.54 503.954 217.54C503.165 217.54 502.56 217.676 502.141 217.947C501.746 218.218 501.475 218.539 501.327 218.909C501.204 219.254 501.142 219.587 501.142 219.908C501.142 220.648 501.339 221.24 501.734 221.684C502.153 222.128 502.684 222.51 503.325 222.831C503.966 223.152 504.632 223.509 505.323 223.904C506.408 224.521 507.296 225.174 507.987 225.865C508.702 226.556 509.233 227.357 509.578 228.27C509.948 229.158 510.133 230.256 510.133 231.563C510.133 232.895 509.849 234.153 509.282 235.337C508.715 236.496 507.839 237.446 506.655 238.186C505.471 238.926 503.942 239.296 502.067 239.296ZM520.046 239.296C517.135 239.296 515.014 238.457 513.682 236.78C512.35 235.078 511.684 232.636 511.684 229.454C511.684 226.889 512.005 224.878 512.646 223.423C513.312 221.943 514.225 220.895 515.384 220.278C516.543 219.661 517.875 219.353 519.38 219.353C521.871 219.353 523.635 220.229 524.671 221.98C525.732 223.731 526.262 226.161 526.262 229.269C526.262 230.009 526.126 230.564 525.855 230.934C525.608 231.304 525.177 231.489 524.56 231.489H517.308C517.308 232.772 517.592 233.672 518.159 234.19C518.751 234.708 519.466 234.967 520.305 234.967C521.045 234.967 521.699 234.881 522.266 234.708C522.833 234.535 523.314 234.363 523.709 234.19C524.128 234.017 524.449 233.931 524.671 233.931C524.918 233.931 525.115 234.104 525.263 234.449C525.436 234.794 525.559 235.189 525.633 235.633C525.732 236.077 525.781 236.435 525.781 236.706C525.781 237.101 525.571 237.458 525.152 237.779C524.733 238.1 524.202 238.383 523.561 238.63C522.944 238.852 522.315 239.012 521.674 239.111C521.033 239.234 520.49 239.296 520.046 239.296ZM517.234 228.196H521.267C521.267 226.445 521.119 225.199 520.823 224.459C520.552 223.694 520.058 223.312 519.343 223.312C518.751 223.312 518.245 223.645 517.826 224.311C517.431 224.977 517.234 226.272 517.234 228.196ZM531.076 239.074C530.287 239.074 529.707 238.975 529.337 238.778C528.992 238.556 528.819 238.248 528.819 237.853V226.087C528.819 225.002 528.782 224.138 528.708 223.497C528.659 222.831 528.597 222.313 528.523 221.943C528.474 221.573 528.449 221.252 528.449 220.981C528.449 220.71 528.622 220.488 528.967 220.315C529.337 220.142 529.769 220.019 530.262 219.945C530.78 219.846 531.261 219.785 531.705 219.76C532.174 219.711 532.507 219.686 532.704 219.686C533.148 219.686 533.444 219.846 533.592 220.167C533.74 220.488 533.913 221.154 534.11 222.165C534.653 221.474 535.356 220.833 536.219 220.241C537.107 219.649 538.131 219.353 539.29 219.353C540.77 219.353 541.905 219.797 542.694 220.685C543.483 221.548 543.878 222.819 543.878 224.496V237.853C543.878 238.248 543.693 238.556 543.323 238.778C542.978 238.975 542.41 239.074 541.621 239.074H540.585C539.796 239.074 539.216 238.975 538.846 238.778C538.501 238.556 538.328 238.248 538.328 237.853V225.606C538.328 225.039 538.205 224.607 537.958 224.311C537.711 224.015 537.267 223.867 536.626 223.867C536.231 223.867 535.824 223.978 535.405 224.2C534.986 224.422 534.64 224.706 534.369 225.051V237.853C534.369 238.248 534.184 238.556 533.814 238.778C533.469 238.975 532.901 239.074 532.112 239.074H531.076ZM551.957 239.296C548.75 239.296 547.147 237.495 547.147 233.894V223.978H546.333C545.593 223.978 545.223 223.361 545.223 222.128V221.499C545.223 220.266 545.593 219.649 546.333 219.649H547.147L547.739 216.134C547.887 215.345 548.516 214.95 549.626 214.95H550.847C552.08 214.95 552.697 215.345 552.697 216.134V219.649H554.288C555.028 219.649 555.398 220.266 555.398 221.499V222.128C555.398 223.361 555.028 223.978 554.288 223.978H552.697V233.376C552.697 233.919 552.759 234.326 552.882 234.597C553.03 234.844 553.301 234.967 553.696 234.967C553.967 234.967 554.177 234.942 554.325 234.893C554.473 234.844 554.633 234.819 554.806 234.819C555.028 234.819 555.213 234.992 555.361 235.337C555.509 235.682 555.62 236.065 555.694 236.484C555.768 236.903 555.805 237.224 555.805 237.446C555.805 237.816 555.608 238.149 555.213 238.445C554.843 238.716 554.362 238.926 553.77 239.074C553.203 239.222 552.598 239.296 551.957 239.296ZM559.693 239.074C558.904 239.074 558.324 238.975 557.954 238.778C557.609 238.556 557.436 238.248 557.436 237.853V226.087C557.436 225.002 557.399 224.138 557.325 223.497C557.276 222.831 557.214 222.313 557.14 221.943C557.091 221.573 557.066 221.252 557.066 220.981C557.066 220.71 557.226 220.488 557.547 220.315C557.892 220.142 558.299 220.019 558.768 219.945C559.261 219.846 559.718 219.785 560.137 219.76C560.581 219.711 560.902 219.686 561.099 219.686C561.568 219.686 561.864 219.871 561.987 220.241C562.135 220.586 562.332 221.363 562.579 222.572C562.826 221.635 563.294 220.87 563.985 220.278C564.7 219.661 565.416 219.353 566.131 219.353C566.698 219.353 567.068 219.489 567.241 219.76C567.414 220.031 567.5 220.438 567.5 220.981C567.5 221.178 567.475 221.499 567.426 221.943C567.377 222.387 567.303 222.856 567.204 223.349C567.13 223.818 567.007 224.225 566.834 224.57C566.686 224.891 566.501 225.051 566.279 225.051C566.032 225.051 565.773 224.989 565.502 224.866C565.255 224.718 564.935 224.644 564.54 224.644C563.874 224.644 563.356 224.928 562.986 225.495V237.853C562.986 238.248 562.801 238.556 562.431 238.778C562.086 238.975 561.518 239.074 560.729 239.074H559.693ZM571.789 246.622C570.482 246.622 569.828 246.338 569.828 245.771C569.828 245.524 569.865 245.315 569.939 245.142L572.122 239.333L567.127 221.055C567.102 220.932 567.078 220.821 567.053 220.722C567.053 220.599 567.053 220.488 567.053 220.389C567.053 219.846 567.682 219.575 568.94 219.575H570.605C571.123 219.575 571.567 219.637 571.937 219.76C572.332 219.859 572.554 220.081 572.603 220.426L574.49 233.006H574.638L576.525 220.426C576.574 220.081 576.784 219.859 577.154 219.76C577.549 219.637 578.005 219.575 578.523 219.575H580.003C581.286 219.575 581.927 219.846 581.927 220.389C581.927 220.488 581.927 220.599 581.927 220.722C581.927 220.821 581.902 220.932 581.853 221.055L575.267 245.771C575.168 246.116 574.934 246.338 574.564 246.437C574.219 246.56 573.787 246.622 573.269 246.622H571.789Z" fill="#4FACFE"/>
<path class="logo-text" d="M217 222H466C470.418 222 474 225.582 474 230C474 234.418 470.418 238 466 238H217C212.582 238 209 234.418 209 230C209 225.582 212.582 222 217 222Z" stroke="currentColor" stroke-width="4"/>
<path class="logo-text" d="M220.5 230.172L460 229.828" stroke="currentColor" stroke-width="4" stroke-linecap="round"/>
<path d="M106.5 67H69.3063C66.389 67 63.5911 68.1589 61.5282 70.2218L26.2218 105.528C24.1589 107.591 23 110.389 23 113.306V150.5V187.694C23 190.611 24.1589 193.409 26.2218 195.472L61.5282 230.778C63.5911 232.841 66.389 234 69.3064 234H106.5H143.694C146.611 234 149.409 232.841 151.472 230.778L186.778 195.472C188.841 193.409 190 190.611 190 187.694V150.5V113.306C190 110.389 188.841 107.591 186.778 105.528L151.472 70.2218C149.409 68.1589 146.611 67 143.694 67H106.5Z" fill="#4FACFE"/>
<path d="M105.665 118.77H91.4536C90.1275 118.77 88.8557 119.297 87.918 120.234L74.5645 133.588C73.6268 134.526 73.1 135.797 73.1 137.124V151.335V165.546C73.1 166.873 73.6268 168.144 74.5645 169.082L87.918 182.436C88.8557 183.373 90.1275 183.9 91.4536 183.9H105.665H119.876C121.203 183.9 122.474 183.373 123.412 182.436L136.766 169.082C137.703 168.144 138.23 166.873 138.23 165.546V151.335V137.124C138.23 135.797 137.703 134.526 136.766 133.588L123.412 120.234C122.474 119.297 121.203 118.77 119.876 118.77H105.665Z" fill="black"/>
<path d="M105.665 128.79H95.6351C94.8395 128.79 94.0764 129.106 93.5138 129.669L83.9987 139.184C83.4361 139.746 83.12 140.509 83.12 141.305V151.335V161.365C83.12 162.16 83.4361 162.924 83.9987 163.486L93.5138 173.001C94.0764 173.564 94.8395 173.88 95.6351 173.88H105.665H115.695C116.491 173.88 117.254 173.564 117.816 173.001L127.331 163.486C127.894 162.924 128.21 162.16 128.21 161.365V151.335V141.305C128.21 140.509 127.894 139.746 127.331 139.184L117.816 129.669C117.254 129.106 116.491 128.79 115.695 128.79H105.665Z" fill="#4FACFE"/>
</svg>
